<?xml version="1.0" encoding="UTF-8"?>
<svg id="Layer_2" data-name="Layer 2" xmlns="http://www.w3.org/2000/svg" viewBox="-20 100 1000 740">
  <g>
    <g id="_Radial_Repeat_" data-name="&amp;lt;Radial Repeat&amp;gt;">
      <path d="M584.3,484.13c63.49,3.81,70.52-61.96,76.73-59.89,4.49,1.5-12.93,184.98-39.61,169.58,0,0-5.31-4.33-14.19-11.68-39.63-32.79-126.88-102.05-156.5-156.68-.04-.07-.07-.13-.1-.2-3.46-7.49-6.63-13.62-7.26-20.55-.28-3.09,3.83-4.41,5.5-1.79,48.41,75.86,112.96,79.76,135.43,81.21Z"/>
    </g>
    <g id="_Radial_Repeat_-2" data-name="&amp;lt;Radial Repeat&amp;gt;">
      <path d="M644.9,362.34c35.05-53.08-18.4-92.05-13.5-96.39,3.54-3.14,153.73,103.69,127.05,119.09,0,0-6.4,2.43-17.21,6.46-48.21,17.93-151.82,58.86-213.94,57.19-.07,0-.15,0-.23-.01-8.21-.75-15.11-1.07-21.43-3.99-2.82-1.3-1.9-5.52,1.2-5.66,89.9-3.99,125.56-57.95,138.05-76.68Z"/>
    </g>
    <g id="_Radial_Repeat_-3" data-name="&amp;lt;Radial Repeat&amp;gt;">
      <path d="M569.73,248.97c-28.45-56.89-88.92-30.09-90.23-36.51-.95-4.64,166.66-81.29,166.66-50.49,0,0-1.09,6.76-3.01,18.13-8.58,50.72-24.94,160.9-57.44,213.87-.04,.06-.08,.13-.12,.19-4.76,6.74-8.49,12.55-14.17,16.57-2.53,1.79-5.73-1.12-4.3-3.87,41.49-79.85,12.59-137.71,2.62-157.89Z"/>
    </g>
    <g id="_Radial_Repeat_-4" data-name="&amp;lt;Radial Repeat&amp;gt;">
      <path d="M433.96,257.39c-63.49-3.81-70.52,61.96-76.73,59.89-4.49-1.5,12.93-184.98,39.61-169.58,0,0,5.31,4.33,14.19,11.68,39.63,32.79,126.88,102.05,156.5,156.68,.04,.07,.07,.13,.1,.2,3.46,7.49,6.63,13.62,7.26,20.55,.28,3.09-3.83,4.41-5.5,1.79-48.41-75.86-112.96-79.76-135.43-81.21Z"/>
    </g>
    <g id="_Radial_Repeat_-5" data-name="&amp;lt;Radial Repeat&amp;gt;">
      <path d="M373.36,379.17c-35.05,53.08,18.4,92.05,13.5,96.39-3.54,3.14-153.73-103.69-127.05-119.09,0,0,6.4-2.43,17.21-6.46,48.21-17.93,151.82-58.86,213.94-57.19,.07,0,.15,0,.23,.01,8.21,.75,15.11,1.07,21.43,3.99,2.82,1.3,1.9,5.52-1.2,5.66-89.9,3.99-125.56,57.95-138.05,76.68Z"/>
    </g>
    <g id="_Radial_Repeat_-6" data-name="&amp;lt;Radial Repeat&amp;gt;">
      <path d="M448.53,492.54c28.45,56.89,88.92,30.09,90.23,36.51,.95,4.64-166.66,81.29-166.66,50.49,0,0,1.09-6.76,3.01-18.13,8.58-50.72,24.94-160.9,57.44-213.87,.04-.06,.08-.13,.12-.19,4.76-6.74,8.49-12.55,14.17-16.57,2.53-1.79,5.73,1.12,4.3,3.87-41.49,79.85-12.59,137.71-2.62,157.89Z"/>
    </g>
  </g>
  <circle cx="509.13" cy="370.76" r="56.14"/>
  <text transform="translate(214.07 754.93)" style="font-family: HelveticaNeueLTStd-HvEx, &apos;Helvetica Neue LT Std&apos;; font-size: 151.59px;"><tspan x="0" y="0">AEGIS</tspan></text>
</svg>