<?xml version="1.0" encoding="UTF-8"?>
<svg id="Layer_2" data-name="Layer 2" xmlns="http://www.w3.org/2000/svg" viewBox="0 0 1080 1080">
  <g>
    <g>
      <g id="_Radial_Repeat_" data-name="&amp;lt;Radial Repeat&amp;gt;">
        <path d="M632.34,540.25c78,4.68,86.63-76.11,94.26-73.57,5.52,1.84-15.88,227.24-48.65,208.32,0,0-6.52-5.32-17.44-14.34-48.69-40.28-155.87-125.36-192.25-192.48-.04-.08-.09-.16-.12-.25-4.24-9.2-8.14-16.74-8.92-25.25-.35-3.8,4.71-5.41,6.76-2.2,59.47,93.19,138.77,97.99,166.37,99.77Z"/>
      </g>
      <g id="_Radial_Repeat_-2" data-name="&amp;lt;Radial Repeat&amp;gt;">
        <path d="M706.78,390.64c43.05-65.21-22.6-113.08-16.58-118.42,4.35-3.86,188.85,127.37,156.08,146.3,0,0-7.86,2.99-21.14,7.93-59.23,22.03-186.5,72.3-262.82,70.26-.09,0-.18,0-.28-.02-10.09-.92-18.57-1.32-26.33-4.9-3.46-1.6-2.33-6.79,1.47-6.95,110.44-4.91,154.24-71.19,169.59-94.2Z"/>
      </g>
      <g id="_Radial_Repeat_-3" data-name="&amp;lt;Radial Repeat&amp;gt;">
        <path d="M614.44,251.37c-34.95-69.89-109.23-36.97-110.84-44.85-1.17-5.7,204.74-99.86,204.74-62.02,0,0-1.34,8.3-3.7,22.27-10.54,62.31-30.63,197.67-70.56,262.74-.05,.08-.1,.16-.15,.23-5.85,8.28-10.43,15.42-17.4,20.35-3.11,2.2-7.04-1.37-5.29-4.75,50.97-98.1,15.47-169.17,3.21-193.96Z"/>
      </g>
      <g id="_Radial_Repeat_-4" data-name="&amp;lt;Radial Repeat&amp;gt;">
        <path d="M447.66,261.71c-78-4.68-86.63,76.11-94.26,73.57-5.52-1.84,15.88-227.24,48.65-208.32,0,0,6.52,5.32,17.44,14.34,48.69,40.28,155.87,125.36,192.25,192.48,.04,.08,.09,.16,.12,.25,4.24,9.2,8.14,16.74,8.92,25.25,.35,3.8-4.71,5.41-6.76,2.2-59.47-93.19-138.77-97.99-166.37-99.77Z"/>
      </g>
      <g id="_Radial_Repeat_-5" data-name="&amp;lt;Radial Repeat&amp;gt;">
        <path d="M373.22,411.31c-43.05,65.21,22.6,113.08,16.58,118.42-4.35,3.86-188.85-127.37-156.08-146.3,0,0,7.86-2.99,21.14-7.93,59.23-22.03,186.5-72.3,262.82-70.26,.09,0,.18,0,.28,.02,10.09,.92,18.57,1.32,26.33,4.9,3.46,1.6,2.33,6.79-1.47,6.95-110.44,4.91-154.24,71.19-169.59,94.2Z"/>
      </g>
      <g id="_Radial_Repeat_-6" data-name="&amp;lt;Radial Repeat&amp;gt;">
        <path d="M465.56,550.58c34.95,69.89,109.23,36.97,110.84,44.85,1.17,5.7-204.74,99.86-204.74,62.02,0,0,1.34-8.3,3.7-22.27,10.54-62.31,30.63-197.67,70.56-262.74,.05-.08,.1-.16,.15-.23,5.85-8.28,10.43-15.42,17.4-20.35,3.11-2.2,7.04,1.37,5.29,4.75-50.97,98.1-15.47,169.17-3.21,193.96Z"/>
      </g>
    </g>
    <circle cx="540" cy="400.98" r="68.97"/>
  </g>
  <g>
    <path d="M161.45,813.57h66.1l69.73,162.17h-57.92l-9.77-26.35h-70.87l-9.77,26.35h-57.92l70.41-162.17Zm32.93,40.88h-.45l-22.49,61.33h45.43l-22.49-61.33Z"/>
    <path d="M307.26,813.57h162.4v34.98h-108.34v29.3h101.53v33.62h-101.53v29.3h108.34v34.98h-162.4v-162.17Z"/>
    <path d="M600.49,881.22h87.22v91.99h-25.21l-6.59-16.81c-7.04,7.95-27.94,21.8-69.96,21.8-70.87,0-101.98-30.21-101.98-86.08,0-47.7,31.57-86.08,101.76-86.08,44.74,0,95.17,11.58,101.98,58.37h-61.1c-3.41-12.49-13.17-23.39-38.61-23.39-33.16,0-48.15,22.71-48.15,51.33s14.99,50.88,48.15,50.88c26.57,0,40.43-9.99,45.65-28.39h-33.16v-33.62Z"/>
    <path d="M720.18,813.57h54.06v162.17h-54.06v-162.17Z"/>
    <path d="M919.83,858.51c-1.59-11.13-10.45-18.85-35.21-18.85-18.17,0-28.16,5.22-28.16,15.9,0,5.45,3.86,8.63,12.04,9.99,13.63,2.27,55.19,8.4,71.09,11.13,30.21,5.22,48.38,17.49,48.38,46.11,0,54.97-71.32,55.42-93.58,55.42-54.97,0-94.71-9.77-97.89-54.97h64.05c1.36,12.27,8.18,19.99,36.34,19.99,13.63,0,28.39-3.18,28.39-17.03,0-8.63-6.81-11.58-25.67-14.54l-54.06-8.18c-33.39-5-46.34-21.8-46.34-45.88,0-21.35,13.17-51.56,84.27-51.56,58.83,0,94.26,14.08,97.67,52.47h-61.32Z"/>
  </g>
</svg>