<?xml version="1.0" encoding="UTF-8"?>
<svg id="Layer_1" data-name="Layer 1" xmlns="http://www.w3.org/2000/svg" viewBox="0 0 1080 1080">
  <g>
    <g id="_Radial_Repeat_" data-name="&amp;lt;Radial Repeat&amp;gt;">
      <path d="M697.93,778.19c133.4,8.01,148.16-130.17,161.21-125.82,9.44,3.15-27.17,388.64-83.21,356.28,0,0-11.15-9.09-29.82-24.53-83.27-68.89-266.58-214.41-328.81-329.19-.08-.14-.15-.28-.21-.42-7.26-15.74-13.92-28.63-15.26-43.18-.6-6.49,8.06-9.26,11.56-3.76,101.71,159.38,237.34,167.58,284.54,170.63Z"/>
    </g>
    <g id="_Radial_Repeat_-2" data-name="&amp;lt;Radial Repeat&amp;gt;">
      <path d="M825.25,522.32c73.64-111.53-38.65-193.4-28.36-202.53,7.44-6.6,322.99,217.85,266.95,250.21,0,0-13.45,5.11-36.15,13.56-101.3,37.67-318.97,123.66-449.49,120.16-.16,0-.32-.01-.47-.03-17.26-1.58-31.75-2.26-45.02-8.38-5.92-2.73-3.99-11.61,2.52-11.89,188.88-8.39,263.8-121.75,290.04-161.11Z"/>
    </g>
    <g id="_Radial_Repeat_-3" data-name="&amp;lt;Radial Repeat&amp;gt;">
      <path d="M667.32,284.13c-59.77-119.53-186.82-63.22-189.57-76.7-1.99-9.75,350.16-170.8,350.16-106.08,0,0-2.3,14.2-6.33,38.09-18.03,106.56-52.39,338.07-120.68,449.35-.08,.13-.17,.27-.26,.4-10,14.15-17.83,26.37-29.77,34.8-5.32,3.76-12.05-2.35-9.04-8.13,87.17-167.77,26.46-289.34,5.5-331.73Z"/>
    </g>
    <g id="_Radial_Repeat_-4" data-name="&amp;lt;Radial Repeat&amp;gt;">
      <path d="M382.07,301.81c-133.4-8.01-148.16,130.17-161.21,125.82-9.44-3.15,27.17-388.64,83.21-356.28,0,0,11.15,9.09,29.82,24.53,83.27,68.89,266.58,214.41,328.81,329.19,.08,.14,.15,.28,.21,.42,7.26,15.74,13.92,28.63,15.26,43.18,.6,6.49-8.06,9.26-11.56,3.76-101.71-159.38-237.34-167.58-284.54-170.63Z"/>
    </g>
    <g id="_Radial_Repeat_-5" data-name="&amp;lt;Radial Repeat&amp;gt;">
      <path d="M254.75,557.67c-73.64,111.53,38.65,193.4,28.36,202.53-7.44,6.6-322.99-217.85-266.95-250.21,0,0,13.45-5.11,36.15-13.56,101.3-37.67,318.97-123.66,449.49-120.16,.16,0,.32,.01,.47,.03,17.26,1.58,31.75,2.26,45.02,8.38,5.92,2.73,3.99,11.61-2.52,11.89-188.88,8.39-263.8,121.75-290.04,161.11Z"/>
    </g>
    <g id="_Radial_Repeat_-6" data-name="&amp;lt;Radial Repeat&amp;gt;">
      <path d="M412.68,795.87c59.77,119.53,186.82,63.22,189.57,76.7,1.99,9.75-350.16,170.8-350.16,106.08,0,0,2.3-14.2,6.33-38.09,18.03-106.56,52.39-338.07,120.68-449.35,.08-.13,.17-.27,.26-.4,10-14.15,17.83-26.37,29.77-34.8,5.32-3.76,12.05,2.35,9.04,8.13-87.17,167.77-26.46,289.34-5.5,331.73Z"/>
    </g>
  </g>
  <circle cx="540" cy="540" r="117.96"/>
</svg>